#!OML:ASF X:\für Bonn\!DataBase\2005_08_10_Bjorn_Final\c3d\bjorn.ASF
:FULLY-SPECIFIED
:DEGREES
126
root -3.01994 14.3261 18.7512 -358.774 -201.438 347.836
lowerback 47.3464 -12.7549 8.77897
upperback 21.59 -1.67828 6.27157
thorax 4.05986 2.70661 3.551
lowerneck 0.534456 -10.1895 5.43566
upperneck 6.83242 -13.4331 -0.0919542
head 1.67836 -6.4866 -1.03614
rclavicle 5.725e-014 3.20043e-014
rhumerus -160.718 -144.504 115.058
rradius 17.9454
rwrist 16.891
rhand -17.4039 12.4157
rfingers 7.12502
rthumb 8.84564 -17.3789
lclavicle 5.725e-014 3.20043e-014
lhumerus -354.867 -20.3059 -290.863
lradius 53.1077
lwrist -7.09111
lhand -31.2736 -3.14922
lfingers 7.12502
lthumb -4.54738 26.782
rfemur -70.9737 -13.6562 -2.95406
rtibia 88.5678
rfoot -17.5482 23.3995
rtoes -23.3759
lfemur -63.0757 11.9783 -31.0471
ltibia 94.101
lfoot -29.9482 17.1673
ltoes -20.7137
127
root -3.0114 14.2151 18.7752 -358.905 -201.464 347.882
lowerback 47.5181 -12.7827 8.80123
upperback 21.6352 -1.59889 6.41506
thorax 4.08923 2.75157 3.68235
lowerneck 0.69267 -10.2475 5.40416
upperneck 6.65917 -13.5056 0.0221774
head 1.60401 -6.52731 -0.980144
rclavicle -1.11319e-013 -3.55825e-014
rhumerus -160.34 -144.078 115.194
rradius 17.8423
rwrist 16.7214
rhand -17.4696 12.1532
rfingers 7.12502
rthumb 8.78221 -17.644
lclavicle -1.11319e-013 -3.55825e-014
lhumerus -354.572 -20.0103 -290.974
lradius 53.0432
lwrist -6.95749
lhand -31.3307 -3.23761
lfingers 7.12502
lthumb -4.60248 26.6924
rfemur -71.6931 -13.9148 -2.79181
rtibia 89.5721
rfoot -17.6883 23.5996
rtoes -23.5382
lfemur -63.6479 12.0616 -30.9135
ltibia 95.129
lfoot -30.2625 17.1829
ltoes -20.6376
128
root -3.00175 14.1033 18.7986 -359.056 -201.495 347.905
lowerback 47.6919 -12.7967 8.80111
upperback 21.6649 -1.52171 6.5471
thorax 4.09975 2.79152 3.81029
lowerneck 0.895532 -10.3097 5.41599
upperneck 6.4614 -13.5799 0.126658
head 1.51115 -6.56903 -0.929615
rclavicle -2.00375e-013 -1.10524e-013
rhumerus -159.987 -143.658 115.322
rradius 17.716
rwrist 16.6731
rhand -17.5855 11.9245
rfingers 7.12502
rthumb 8.67034 -17.8774
lclavicle -2.00375e-013 -1.10524e-013
lhumerus -354.338 -19.7106 -291.063
lradius 52.9754
lwrist -6.80341
lhand -31.3682 -3.42429
lfingers 7.12502
lthumb -4.63868 26.5049
rfemur -72.3893 -14.1298 -2.67778
rtibia 90.5709
rfoot -17.863 23.7463
rtoes -23.7801
lfemur -64.2137 12.1419 -30.805
ltibia 96.1554
lfoot -30.4898 17.3174
ltoes -20.7829
129
root -2.99132 13.9898 18.8236 -359.229 -201.488 347.95
lowerback 47.8874 -12.8388 8.8525
upperback 21.6814 -1.44768 6.65975
thorax 4.09439 2.83831 3.89677
lowerneck 1.09966 -10.38 5.43421
upperneck 6.28846 -13.6655 0.260674
head 1.42804 -6.61506 -0.872222
rclavicle 1.68569e-013 4.57205e-015
rhumerus -159.657 -143.105 115.38
rradius 17.6111
rwrist 16.83
rhand -17.7592 11.735
rfingers 7.12502
rthumb 8.50269 -18.0738
lclavicle 1.68569e-013 4.57205e-015
lhumerus -354.042 -19.4612 -291.195
lradius 52.8119
lwrist -6.75354
lhand -31.3285 -3.60956
lfingers 7.12502
lthumb -4.60038 26.3205
rfemur -73.0443 -14.3403 -2.5481
rtibia 91.567
rfoot -18.0631 23.8904
rtoes -23.9475
lfemur -64.7439 12.2159 -30.653
ltibia 97.1724
lfoot -30.753 17.339
ltoes -20.823
130
root -2.97856 13.8773 18.8483 -359.422 -201.474 347.995
lowerback 48.097 -12.8831 8.87001
upperback 21.6792 -1.39737 6.75784
thorax 4.06571 2.86897 3.98879
lowerneck 1.33154 -10.441 5.45233
upperneck 6.18097 -13.7326 0.380042
head 1.36098 -6.64937 -0.820191
rclavicle 1.33583e-013 1.30403e-013
rhumerus -159.431 -142.746 115.503
rradius 17.5249
rwrist 16.9101
rhand -17.9658 11.5956
rfingers 7.12502
rthumb 8.30339 -18.2212
lclavicle 1.33583e-013 1.30403e-013
lhumerus -353.826 -19.2508 -291.388
lradius 52.6726
lwrist -6.64088
lhand -31.2242 -3.78755
lfingers 7.12502
lthumb -4.49966 26.1447
rfemur -73.6599 -14.5048 -2.44327
rtibia 92.5643
rfoot -18.213 24.0251
rtoes -23.92
lfemur -65.243 12.3024 -30.4989
ltibia 98.1832
lfoot -31.0142 17.3858
ltoes -20.8993
131
root -2.96431 13.7654 18.8747 -359.611 -201.423 348.064
lowerback 48.3009 -12.9443 8.93853
upperback 21.6725 -1.3409 6.85076
thorax 4.03462 2.9096 4.05141
lowerneck 1.5425 -10.5217 5.52533
upperneck 6.04626 -13.827 0.47162
head 1.28295 -6.69795 -0.784346
rclavicle -1.62208e-013 -3.47873e-014
rhumerus -159.333 -142.49 115.706
rradius 17.5253
rwrist 16.8664
rhand -18.225 11.4306
rfingers 7.12502
rthumb 8.05318 -18.396
lclavicle -1.62208e-013 -3.47873e-014
lhumerus -353.583 -19.1609 -291.645
lradius 52.5357
lwrist -6.48396
lhand -31.0715 -4.01044
lfingers 7.12502
lthumb -4.35218 25.9248
rfemur -74.2581 -14.6655 -2.30896
rtibia 93.5575
rfoot -18.4769 24.0647
rtoes -24.0981
lfemur -65.7366 12.3623 -30.2987
ltibia 99.1794
lfoot -31.252 17.3743
ltoes -20.9398
132
root -2.94734 13.6505 18.9018 -359.791 -201.313 348.118
lowerback 48.4461 -13.0195 9.01067
upperback 21.6675 -1.31268 6.93717
thorax 4.01416 2.9376 4.11308
lowerneck 1.69561 -10.5942 5.68998
upperneck 5.99648 -13.9084 0.470734
head 1.22916 -6.7362 -0.795933
rclavicle -3.81667e-014 7.27552e-014
rhumerus -159.295 -142.281 115.905
rradius 17.5757
rwrist 16.7475
rhand -18.4884 11.2809
rfingers 7.12502
rthumb 7.79892 -18.5552
lclavicle -3.81667e-014 7.27552e-014
lhumerus -353.336 -19.0987 -291.955
lradius 52.3653
lwrist -6.45029
lhand -30.867 -4.28479
lfingers 7.12502
lthumb -4.15475 25.6544
rfemur -74.8643 -14.8476 -2.20923
rtibia 94.5636
rfoot -18.6383 24.1202
rtoes -24.0232
lfemur -66.2532 12.3952 -30.1225
ltibia 100.172
lfoot -31.4318 17.4042
ltoes -21.0396
